<svg width="603" height="603" viewBox="0 0 603 603" fill="none" xmlns="http://www.w3.org/2000/svg">
<path d="M43.4509 292.967H33.4509H43.4509ZM189.649 177.188L182.993 169.725C182.851 169.852 182.713 169.983 182.578 170.117L189.649 177.188ZM141.692 292.967H131.692H141.692ZM305.427 456.702V466.702V456.702ZM469.163 292.967H479.163H469.163ZM305.427 20.9903C233.295 20.9903 164.116 49.6449 113.111 100.65L127.253 114.793C174.508 67.5378 238.599 40.9903 305.427 40.9903V20.9903ZM113.111 100.65C62.1055 151.656 33.4509 220.834 33.4509 292.967H53.4509C53.4509 226.138 79.9984 162.047 127.253 114.793L113.111 100.65ZM33.4509 292.967C33.4509 365.099 62.1055 434.278 113.111 485.283L127.253 471.141C79.9984 423.886 53.4509 359.795 53.4509 292.967H33.4509ZM113.111 485.283C164.116 536.289 233.295 564.943 305.427 564.943V544.943C238.599 544.943 174.508 518.396 127.253 471.141L113.111 485.283ZM305.427 564.943C377.56 564.943 446.738 536.289 497.744 485.283L483.602 471.141C436.347 518.396 372.256 544.943 305.427 544.943V564.943ZM497.744 485.283C548.749 434.278 577.404 365.099 577.404 292.967H557.404C557.404 359.795 530.856 423.886 483.602 471.141L497.744 485.283ZM577.404 292.967C577.404 220.834 548.749 151.656 497.744 100.65L483.602 114.793C530.856 162.047 557.404 226.138 557.404 292.967H577.404ZM497.744 100.65C446.738 49.6449 377.56 20.9903 305.427 20.9903V40.9903C372.256 40.9903 436.347 67.5378 483.602 114.793L497.744 100.65ZM305.427 275.107C303.629 275.107 301.276 274.325 298.062 270.982C294.754 267.541 291.362 262.202 287.812 255.036C284.305 247.958 280.943 239.725 277.457 230.858C274.025 222.128 270.447 212.711 266.682 203.85C262.91 194.972 258.774 186.218 254.051 178.639C249.373 171.133 243.737 164.145 236.701 159.432C229.356 154.512 220.707 152.245 211.038 154.099C201.759 155.878 192.473 161.271 182.993 169.725L196.305 184.652C204.308 177.514 210.396 174.586 214.804 173.741C218.823 172.97 222.176 173.775 225.57 176.049C229.274 178.529 233.115 182.858 237.077 189.217C240.994 195.503 244.659 203.162 248.275 211.671C251.898 220.198 255.293 229.144 258.844 238.176C262.341 247.072 265.971 256.003 269.891 263.914C273.766 271.737 278.234 279.215 283.644 284.842C289.148 290.568 296.369 295.107 305.427 295.107V275.107ZM182.578 170.117C149.996 202.699 131.692 246.889 131.692 292.967H151.692C151.692 252.194 167.889 213.09 196.72 184.259L182.578 170.117ZM131.692 292.967C131.692 339.044 149.996 383.234 182.578 415.816L196.72 401.674C167.889 372.843 151.692 333.74 151.692 292.967H131.692ZM182.578 415.816C215.16 448.398 259.35 466.702 305.427 466.702V446.702C264.654 446.702 225.551 430.505 196.72 401.674L182.578 415.816ZM305.427 466.702C351.505 466.702 395.695 448.398 428.277 415.816L414.135 401.674C385.304 430.505 346.2 446.702 305.427 446.702V466.702ZM428.277 415.816C460.858 383.234 479.163 339.044 479.163 292.967H459.163C459.163 333.74 442.966 372.843 414.135 401.674L428.277 415.816ZM479.163 292.967C479.163 246.889 460.858 202.699 428.277 170.117L414.135 184.259C442.966 213.09 459.163 252.194 459.163 292.967H479.163ZM428.277 170.117C422.413 164.254 415.102 161.594 407.191 163.213C400.214 164.641 394.208 169.139 389.287 173.936C379.385 183.59 369.3 199.151 359.658 214.251C349.665 229.901 339.83 245.604 329.856 257.503C324.897 263.419 320.236 267.981 315.894 271.006C311.555 274.029 308.131 275.107 305.427 275.107V295.107C313.58 295.107 320.957 291.854 327.327 287.416C333.694 282.98 339.651 276.951 345.184 270.351C356.191 257.218 366.829 240.183 376.514 225.015C386.55 209.297 395.348 195.959 403.249 188.257C407.229 184.376 409.854 183.082 411.201 182.806C411.615 182.722 412.322 182.447 414.135 184.259L428.277 170.117ZM202.249 157.322C187.509 169.114 178.348 181.913 175.58 196.063C172.794 210.305 176.854 224.003 184.599 236.756C199.675 261.581 231.056 286.51 266.492 312.142C302.677 338.316 343.976 365.799 382.121 396.577C420.196 427.298 453.981 460.442 474.889 497.03L492.254 487.107C469.499 447.286 433.424 412.273 394.68 381.012C356.005 349.806 313.526 321.48 278.214 295.937C242.152 269.853 214.315 247.158 201.693 226.374C195.589 216.322 193.679 207.719 195.208 199.903C196.755 191.994 202.194 182.978 214.743 172.939L202.249 157.322ZM409.915 431.764C466.208 386.73 497.931 333.132 503.681 270.496C509.397 208.239 489.316 138.507 445.098 61.1264L427.733 71.0491C470.841 146.488 488.965 212.027 483.765 268.667C478.6 324.929 450.286 373.855 397.422 416.146L409.915 431.764Z" fill="url(#paint0_linear)"/>
<path d="M123.921 494.412C183.841 553.851 281.371 554.138 341.101 494.408C400.978 434.532 400.978 337.109 341.101 277.232L325.771 261.903C301.116 237.247 301.116 197.126 325.771 172.471C350.43 147.812 390.548 147.816 415.203 172.471C422.258 179.526 433.699 179.526 440.755 172.471L479.082 134.143C486.141 127.085 486.137 115.647 479.082 108.592C419.205 48.7149 321.779 48.7113 261.899 108.592C202.022 168.468 202.022 265.898 261.899 325.775L277.229 341.105C301.887 365.763 301.88 405.877 277.229 430.529C252.573 455.184 212.46 455.191 187.801 430.532C180.746 423.477 169.304 423.477 162.249 430.532L123.921 468.86C116.87 475.919 116.866 487.357 123.921 494.412Z" fill="url(#paint1_linear)" fill-opacity="0.5"/>
<defs>
<linearGradient id="paint0_linear" x1="532.037" y1="61.1176" x2="101.086" y2="513.027" gradientUnits="userSpaceOnUse">
<stop offset="0.027672" stop-color="#FF00F5"/>
<stop offset="0.967894" stop-color="#00F0FF" stop-opacity="0"/>
</linearGradient>
<linearGradient id="paint1_linear" x1="592.294" y1="0.863313" x2="120.736" y2="477.66" gradientUnits="userSpaceOnUse">
<stop stop-color="white"/>
<stop offset="0.95427" stop-color="white" stop-opacity="0"/>
</linearGradient>
</defs>
</svg>
