<svg width="40" height="40" fill="none" xmlns="http://www.w3.org/2000/svg">
  <path d="M2.88245 19.434h-1.5 1.5zm9.69805-7.6802l-.9984-1.1195c-.0213.019-.0421.0386-.0623.0588l1.0607 1.0607zM9.39927 19.434h-1.5 1.5zM20.2607 30.2953v1.5-1.5zM31.122 19.434h1.5-1.5zM20.2607.55576c-5.0069 0-9.8086 1.98894-13.34896 5.52929l2.12132 2.12132C12.0108 5.22863 16.0495 3.55576 20.2607 3.55576v-3zM6.91174 6.08505C3.37139 9.6254 1.38245 14.4271 1.38245 19.434h3c0-4.2112 1.67287-8.2499 4.65061-11.22763L6.91174 6.08505zM1.38245 19.434c0 5.0068 1.98894 9.8085 5.52929 13.3489l2.12132-2.1214c-2.97774-2.9777-4.65061-7.0164-4.65061-11.2275h-3zm5.52929 13.3489c3.54036 3.5403 8.34206 5.5293 13.34896 5.5293v-3c-4.2112 0-8.2499-1.6729-11.22764-4.6507l-2.12132 2.1214zm13.34896 5.5293c5.0068 0 9.8085-1.989 13.3489-5.5293l-2.1214-2.1214c-2.9777 2.9778-7.0164 4.6507-11.2275 4.6507v3zm13.3489-5.5293c3.5403-3.5404 5.5293-8.3421 5.5293-13.3489h-3c0 4.2111-1.6729 8.2498-4.6507 11.2275l2.1214 2.1214zm5.5293-13.3489c0-5.0069-1.989-9.8086-5.5293-13.34895l-2.1214 2.12132c2.9778 2.97773 4.6507 7.01643 4.6507 11.22763h3zM33.6096 6.08505C30.0692 2.5447 25.2675.55575 20.2607.55575v3.00001c4.2111 0 8.2498 1.67287 11.2275 4.65061l2.1214-2.12132zM20.2607 17.4126c.1844 0 .2319.1053.1146-.0168-.1316-.1368-.3116-.4015-.5335-.8494-.2153-.4347-.4272-.9515-.6579-1.5385-.2228-.5665-.4677-1.2109-.7234-1.8126-.2567-.6044-.5509-1.2309-.8978-1.7877-.3402-.546-.7893-1.1208-1.3954-1.52678-.6525-.43707-1.4478-.64867-2.3255-.48035-.8193.1571-1.5691.61793-2.2597 1.23383l1.9968 2.239c.4691-.4184.7391-.5095.8278-.5265.0302-.0058.0311-.0136.091.0265.1063.0712.286.2471.5189.6209.2261.3629.4495.8251.6828 1.3742.2344.5517.452 1.1254.6925 1.7371.2324.5913.4844 1.213.7617 1.7727.2707.5464.6121 1.1319 1.0589 1.5966.4609.4796 1.1436.9378 2.0482.9378v-3zm-8.7409-6.7195c-2.31817 2.3183-3.62053 5.4624-3.62053 8.7409h3.00003c0-2.4828.9863-4.8639 2.7419-6.6195l-2.1214-2.1214zM7.89927 19.434c0 3.2784 1.30236 6.4226 3.62053 8.7408l2.1214-2.1213c-1.7556-1.7556-2.7419-4.1367-2.7419-6.6195H7.89927zm3.62053 8.7408c2.3182 2.3182 5.4624 3.6205 8.7409 3.6205v-3c-2.4828 0-4.8639-.9862-6.6195-2.7418l-2.1214 2.1213zm8.7409 3.6205c3.2784 0 6.4226-1.3023 8.7408-3.6205l-2.1214-2.1213c-1.7556 1.7556-4.1367 2.7418-6.6194 2.7418v3zm8.7408-3.6205c2.3182-2.3182 3.6205-5.4624 3.6205-8.7408h-3c0 2.4828-.9863 4.8639-2.7419 6.6195l2.1214 2.1213zm3.6205-8.7408c0-3.2785-1.3023-6.4226-3.6205-8.7409l-2.1214 2.1214c1.7556 1.7556 2.7419 4.1367 2.7419 6.6195h3zm-3.6205-8.7409c-.5584-.5584-1.3197-.85762-2.1581-.686-.6984.1429-1.2382.5754-1.604.9319-.7405.722-1.4634 1.8472-2.0865 2.8231-.6758 1.0583-1.2946 2.0442-1.913 2.782-.3049.3637-.5598.6049-.7632.7466-.2029.1414-.2647.1219-.216.1219v3c.7688 0 1.4234-.3068 1.9309-.6604.5071-.3532.9565-.8145 1.3475-1.281.7734-.9228 1.5127-2.1085 2.1423-3.0946.6822-1.0684 1.2119-1.8602 1.6523-2.2895.2247-.2191.2573-.1709.1112-.141-.2862.0586-.5156-.0824-.5648-.1316l2.1214-2.1214zm-16.1078-.91045c-1.0695.85565-1.8329 1.86285-2.0676 3.06255-.2374 1.2136.1219 2.3354.7043 3.2943 1.1027 1.8158 3.3326 3.5629 5.6571 5.2444 2.4369 1.7626 5.1271 3.5504 7.6352 5.5741 2.4977 2.0154 4.6431 4.1357 5.9528 6.4276l2.6047-1.4884c-1.5867-2.7768-4.0755-5.1776-6.6736-7.2739-2.5877-2.0879-5.4549-4.0022-7.7608-5.6702-2.4183-1.7492-4.1166-3.1612-4.8512-4.3708-.3364-.5539-.3731-.9114-.3243-1.1611.0516-.2636.2567-.7034.9975-1.2959l-1.8741-2.34265zM27.7145 29.2944c3.8776-3.1021 6.1245-6.8529 6.5305-11.2746.4007-4.3647-1.0133-9.16574-3.9929-14.38007l-2.6047 1.48842c2.8131 4.92295 3.9335 9.09515 3.6101 12.61745-.3181 3.4654-2.0537 6.5155-5.4171 9.2062l1.8741 2.3426z" fill="url(#paint0_linear)"/>
  <path d="M8.22032 32.7968c3.97478 3.9429 10.44448 3.962 14.40658-.0002 3.972-3.9719 3.972-10.4345 0-14.4064L21.61 17.3733c-1.6355-1.6355-1.6355-4.2969 0-5.9324 1.6358-1.63575 4.297-1.63551 5.9325 0 .468.468 1.227.468 1.6949 0l2.5425-2.54248c.4683-.46824.468-1.22698 0-1.69498-3.9719-3.97193-10.4347-3.97216-14.4068 0-3.972 3.97196-3.972 10.43496 0 14.40686l1.0169 1.0169c1.6357 1.6357 1.6352 4.2967 0 5.9319-1.6355 1.6355-4.2965 1.636-5.9322.0003-.468-.468-1.227-.468-1.695 0l-2.54248 2.5424c-.46776.4683-.468 1.227 0 1.695z" fill="url(#paint1_linear)" fill-opacity=".5"/>
  <defs>
    <linearGradient id="paint0_linear" x1="35.2928" y1="4.05425" x2="6.70565" y2="34.0317" gradientUnits="userSpaceOnUse">
      <stop offset=".02767" stop-color="#FF00F5"/>
      <stop offset=".96789" stop-color="#00F0FF" stop-opacity="0"/>
    </linearGradient>
    <linearGradient id="paint1_linear" x1="39.2898" y1=".05728" x2="8.00903" y2="31.6856" gradientUnits="userSpaceOnUse">
      <stop stop-color="#fff"/>
      <stop offset=".95427" stop-color="#fff" stop-opacity="0"/>
    </linearGradient>
  </defs>
</svg>
