<svg width="24" height="24" fill="none" xmlns="http://www.w3.org/2000/svg">
  <path d="M19.995 6.68799a4.30004 4.30004 0 001.887-2.374 8.59085 8.59085 0 01-2.725 1.041c-1.3324-1.40947-3.4435-1.75248-5.1536-.83735-1.7101.91513-2.5959 2.86184-2.1624 4.75235-3.45038-.17323-6.66502-1.80309-8.84398-4.484-1.13716 1.96142-.55605 4.46878 1.328 5.73001a4.27631 4.27631 0 01-1.943-.53801v.05401c.00039 2.0431 1.44037 3.8031 3.443 4.208a4.30092 4.30092 0 01-1.938.074c.5632 1.7473 2.17355 2.9443 4.009 2.98a8.61 8.61 0 01-5.33 1.837 8.71198 8.71198 0 01-1.025-.059A12.14773 12.14773 0 008.12002 21c3.24528.0223 6.36398-1.2571 8.65868-3.552 2.2947-2.2949 3.5739-5.4138 3.5513-8.65901 0-.186-.0043-.371-.013-.555a8.71844 8.71844 0 002.142-2.222 8.57906 8.57906 0 01-2.464.676z" fill="#fff"/>
</svg>
